<svg width="25" height="25" viewBox="0 0 50 50" fill="none"
                                    xmlns="http://www.w3.org/2000/svg">
                                    <path
                                        d="M43.6126 11.3891L27.4813 2.07507C26.7704 1.65632 25.9157 1.41101 25.0001 1.41101C24.0845 1.41101 23.2298 1.65789 22.4938 2.08757L22.5173 2.07507L6.38603 11.3891C5.63324 11.8263 5.00807 12.453 4.57274 13.2069C4.13742 13.9608 3.90713 14.8155 3.90479 15.686V34.3141C3.9066 35.1805 4.13442 36.0314 4.56574 36.7828C4.99705 37.5342 5.61694 38.16 6.36416 38.5985L6.38916 38.611L22.5173 47.9251C23.2718 48.3629 24.1293 48.5921 25.0017 48.5891C25.9142 48.5891 26.7688 48.3423 27.5048 47.9126L27.4829 47.9251L43.611 38.611C44.3638 38.1738 44.989 37.5471 45.4243 36.7933C45.8597 36.0394 46.0899 35.1847 46.0923 34.3141V15.686C46.0911 14.8197 45.8637 13.9687 45.4326 13.2173C45.0015 12.4658 44.3817 11.84 43.6345 11.4016L43.6126 11.3891ZM42.786 34.3141C42.786 34.9219 42.4563 35.4548 41.9642 35.7423L41.9579 35.7454L25.8267 45.0594C25.5736 45.2059 25.2863 45.2826 24.994 45.2818C24.7017 45.2809 24.4148 45.2026 24.1626 45.0548L24.1704 45.0579L8.03916 35.7438C7.78791 35.5988 7.57926 35.3901 7.43417 35.1389C7.28909 34.8877 7.21267 34.6027 7.2126 34.3126V15.6844C7.2126 15.0766 7.54229 14.5438 8.03447 14.2563L8.04072 14.2532L24.172 4.93914C24.4251 4.79332 24.7121 4.7167 25.0042 4.71697C25.2963 4.71725 25.5832 4.79441 25.836 4.9407L25.8267 4.93757L41.9579 14.2516C42.4563 14.5407 42.7845 15.0751 42.7845 15.6829L42.786 34.3141Z"
                                        fill="black" />
                                    <path
                                        d="M34.6844 30.2075H33.5C33.218 30.2068 32.9407 30.2794 32.6953 30.4184L32.7047 30.4121L25.5578 34.3371L17.3047 29.5731V20.07L25.5578 15.3028L32.7078 19.2153C32.9359 19.3434 33.2125 19.42 33.5016 19.42H34.6859C34.7947 19.4197 34.9023 19.3981 35.0027 19.3563C35.1031 19.3145 35.1943 19.2533 35.2711 19.1763C35.3478 19.0993 35.4086 19.0078 35.4501 18.9073C35.4915 18.8067 35.5127 18.699 35.5125 18.5903V17.4715C35.5127 17.3242 35.4735 17.1794 35.3991 17.0523C35.3246 16.9251 35.2176 16.8201 35.0891 16.7481L35.0828 16.745L27.1484 12.4059C26.6475 12.1321 26.0844 11.9924 25.5136 12.0003C24.9428 12.0083 24.3837 12.1636 23.8906 12.4512L23.9062 12.4418L15.6547 17.2059C15.1532 17.4981 14.7368 17.9162 14.4466 18.4188C14.1564 18.9214 14.0024 19.4911 14 20.0715V29.5746C14 30.7918 14.6594 31.8575 15.6391 32.4309L15.6531 32.4403L23.9047 37.2043C24.4001 37.4892 24.9606 37.6416 25.532 37.6468C26.1035 37.652 26.6667 37.5099 27.1672 37.234L27.1484 37.2434L35.0859 32.8887C35.2166 32.8177 35.3257 32.7127 35.4016 32.5848C35.4775 32.4569 35.5175 32.3109 35.5172 32.1621V31.0434C35.5168 30.8243 35.4296 30.6143 35.2746 30.4594C35.1197 30.3045 34.9097 30.2172 34.6906 30.2168L34.6844 30.2075Z"
                                        fill="black" />
                                </svg>